<svg xmlns="http://www.w3.org/2000/svg" width="512" height="512" id="robot">
  <path d="M318.465 470.536L268.076 470.573L268.056 490.789C268.066 495.876 267.389 494.63 271.757 496.946C290.701 506.988 301.918 531.118 305.284 551.316C308.288 569.342 299.569 567.147 286.717 567.137L236.601 567.179C225.959 567.208 215.246 570.213 216.495 554.894C218.192 534.066 231.873 503.075 252.138 495.214L252.362 471.219C219.333 469.42 208.702 455.675 204.025 423.171L194.054 353.386C178.276 349.294 170.382 335.819 167.185 321.07C163.844 322.569 160.979 324.943 158.306 327.406C138.764 345.408 129.699 373.928 141.58 398.907C142.459 400.755 143.049 400.214 145.086 400.463C157.458 401.975 168.064 408.758 171.852 421.339C173.617 427.2 173.761 436.461 170.627 441.875C168.39 445.74 163.016 447.165 159.311 444.453C153.068 439.881 158.062 432.368 157.063 426.419C155.919 419.604 147.764 414.372 141.667 418.805C138.479 421.123 137.78 425.388 133.258 426.007C127.269 426.826 122.05 420.161 121.685 414.688C121.464 411.372 125.154 407.842 127.126 405.522L124.489 398.325C112.621 364.229 127.554 329.471 156.01 309.111C159.374 306.705 162.89 304.293 166.833 302.952C167.626 302.683 168.722 299.005 169.331 297.981C185.545 270.738 215.443 263.907 244.883 262.553L269.566 262.37L269.536 249.844C244.646 249.576 237.868 245.289 223.009 223.813C209.334 226.741 202.808 220.46 202.851 207.613L202.864 172.694C203.207 161.723 214.297 159.858 222.999 160.113C224.058 158.595 224.638 156.461 225.501 154.783C238.74 129.043 258.625 129.088 282.891 129.075L312.172 129.016L312.117 109.992C310.163 108.567 307.917 108.135 305.927 106.57C289.678 93.7963 297.277 67.9615 320.17 65.7523C341.648 63.6321 352.039 98.7054 332.556 107.833C331.095 108.517 329.623 108.591 328.208 109.474L328.149 129.091L371.967 129.101C390.735 129.216 408.702 137.777 416.123 156.094C417.186 158.716 416.528 160.292 419.723 160.288C428.672 160.277 437.264 161.918 437.617 172.97L437.684 208.285C437.713 231.016 417.237 220.226 415.566 226.317C412.191 238.615 395.436 248.275 383.772 249.536C379.605 249.986 375.176 249.806 370.976 249.888L371.057 262.244L396.769 262.514C426.088 263.407 456.14 271.18 470.902 299.062C473.059 303.136 472.273 302.162 476.457 304.121C502.139 316.145 520.066 347.431 520.039 375.677C520.03 385.309 517.735 394.091 514.12 403.053C512.711 406.547 512.54 405.64 514.349 408.728C517.744 414.522 518.29 424.066 510.032 425.781C502.828 427.278 503.091 421.3 498.485 418.333C494.399 415.701 488.148 417.604 485.21 421.151C480.043 427.39 486.515 435.581 482.796 441.695C469.55 463.468 449.717 403.297 498.982 400.214C510.988 370.488 501.247 338.949 474.253 321.222C471.378 333.891 462.763 347.631 449.903 352.067C448.253 352.636 446.814 352.077 446.506 354.011L436.049 426.34C430.711 457.48 419.197 469.881 388.492 470.661C388.478 474.115 387.95 494.301 388.873 495.646C400.414 499.92 411.257 515.66 416.155 526.097C419.586 533.409 426.213 554.909 423.34 562.266C420.716 568.989 411.521 567.168 405.872 567.152L341.608 567.155C334.43 566.907 334.254 559.848 334.727 554.537C336.414 535.615 352.163 500.731 372.147 495.263L372.499 470.547L318.465 470.536ZM318.843 81.8768C310.469 85.4642 311.519 95.7605 321.347 95.2577C330.74 92.6286 328.361 81.5103 318.843 81.8768ZM268.013 145.067L263.443 145.4C252.743 146.272 241.359 153.993 238.342 164.701C236.597 170.895 235.239 207.41 237.312 214.219C243.123 233.31 256.269 234.384 272.304 234.389L373.074 234.374L379.791 234.143C396.013 232.886 403.677 221.047 403.723 205.321L403.739 192.537C403.741 174.421 406.581 153.684 384.062 146.656L382.414 146.198C379.923 145.543 377.941 145.168 375.298 145.059L268.013 145.067ZM419.497 176.719L419.292 196.254C419.296 199.975 417.636 208.19 421.405 208.212L422.223 207.656C422.299 202.362 424.18 178.082 420.174 176.553L419.497 176.719ZM218.831 177.031C218.356 180.454 216.924 207.211 220.469 208.243L220.781 208.139C221.445 205.736 221.286 203.219 221.291 200.783L221.294 188.682C221.292 186.476 222.93 176.288 219.155 176.915L218.831 177.031ZM285.472 249.721L285.417 262.27L355.3 262.456L355.398 249.754L285.472 249.721ZM294.536 278.038L259.515 278.051C236.161 278.073 201.176 279.181 186.803 300.497C178.776 312.401 182.131 331.389 196.406 336.512L197.079 335.666L196.406 335.093C197.756 333.936 199.409 333.391 201.124 333.008C210.606 338.266 209.347 350.787 210.808 360.156L218.945 415.409C221.221 430.404 222.919 452.272 242.432 454.57C246.426 455.041 250.589 454.874 254.606 454.873L343.597 454.855L390.834 454.862C418.454 454.82 419.433 430.727 422.7 408.826L431.343 348.637C433.012 339.595 435.13 332.033 446.866 336.041C458.046 329.516 461.764 314.383 455.214 303.304C437.7 273.681 388.306 278.011 359.188 278.016L294.536 278.038ZM259.632 509.726C242.583 515.05 237.067 536.114 233.36 551.243L262.954 551.276L289.247 550.808C288.675 549.795 288.617 548.471 288.328 547.35C285.477 536.29 273.827 510.229 259.632 509.726ZM379.011 509.712C365.551 514.211 356.329 532.083 352.801 545.312C352.312 547.144 352.229 549.57 351.437 551.252L380.469 551.276L407.45 550.792C406.888 549.575 406.832 548.069 406.525 546.764C404.169 536.745 392.108 508.998 379.011 509.712Z" transform="scale(.8)"></path>
  <path d="M284.847 209.736C253.671 214.68 246.699 169.315 277.724 164.14 306.72 161.458 316.25 202.014 284.847 209.736zM278.903 180.027C269.253 182.854 272.784 194.676 283.102 193.697 292.778 189.195 288.448 179.733 278.903 180.027zM363.082 209.714C331.884 214.179 324.848 169.327 355.743 164.144 386.442 161.208 392.737 204.684 363.082 209.714zM356.594 180.337C347.364 184.098 351.501 194.387 361.628 193.663 370.533 189.699 367.198 179.926 356.594 180.337z" transform="scale(.8)"></path>
</svg>
